<svg id="Capa_1" data-name="Capa 1" xmlns="http://www.w3.org/2000/svg" viewBox="0 0 421.79 512"><defs><style>.cls-1{fill:#e0b94d;}</style></defs><path class="cls-1" d="M260.09,89,290,177.84h19.4L286.9,111.46l30.9,3.32c-1.54,82.72,116.93,42.89,65.87-22.21L416.6,66.78l30.13,25c-46,54.89,60,115.66,66.13,22l31.15-2.3-24,66.38H541l32.68-87.32-84,8.17C513.37,174,412.52,137,477.12,91.8L416.86,41.64l-62,49.14c63.83,43.91-32.68,85.79-14.56,6.89Z" transform="translate(-210.05 -41.64)"/><polygon class="cls-1" points="155.49 345.06 207.57 512 259.66 345.06 246.64 329.35 207.57 463.78 168.89 329.35 155.49 345.06"/><path class="cls-1" d="M263.67,201l3.45,23.74L210.05,419.63H311.92L297,396.17l13.15-85.88-31.41,35L271.07,387H245.54l10-40.09L285.37,315l9.19-46.73-28.08,33.71,19.4-78.9L304.26,219l-6.89,35.74,27.06-36.25,5.62-36.77S286.39,190.61,263.67,201Z" transform="translate(-210.05 -41.64)"/><path class="cls-1" d="M332.09,181.67l9.2,26.55L325.71,337.67l-21.19,30.38H351l5.61-71.48,25.28-31.15-3.57,101.1h28.34V181.67l-46,67.15,4.85-71A261,261,0,0,0,332.09,181.67Z" transform="translate(-210.05 -41.64)"/><path class="cls-1" d="M407.92,176,422,206.18l4.08,126.64,30.13,35.23H483l23.49-33.44L482.73,181.67s-9.38-1.72-21.51-2.74l16.34,141.12-11.1,15.71-14-16.28L441.9,177.24S435.88,176.63,407.92,176Z" transform="translate(-210.05 -41.64)"/><path class="cls-1" d="M483.88,181.86,502.26,213l14.56,76.47s38.68,41.74,66.25,66.06L591.88,385H564.5l-3.45-15.51-35.23-33.7,10,51.51L522,417H631.84l-75-218.84-20.11-5.56,33.7,117.93-31.78-32.17-21.4-90S514.33,186.83,483.88,181.86Z" transform="translate(-210.05 -41.64)"/></svg>