<svg id="Capa_1" data-name="Capa 1" xmlns="http://www.w3.org/2000/svg" viewBox="0 0 582.85 338.42"><defs><style>.cls-1{fill:#fff;}</style></defs><path class="cls-1" d="M367.65,328.26q3.87-10,13.82-17.86,16.26-12.79,46.21-12.8h8.69c0-.44,16.46.58,17.49.3l12.95-.71c16.79-1.58,21.88-3.62,27.65-5.31,1.4-.45,2.79-.93,4.15-1.44a103.34,103.34,0,0,0,33.19-19.52,85.29,85.29,0,0,0,21.49-29.5,91.85,91.85,0,0,0,7.59-37.54,90.71,90.71,0,0,0-7.59-37.09,87.59,87.59,0,0,0-21.49-29.73,98.52,98.52,0,0,0-33.19-19.52q-19.31-6.93-42.73-6.94H320.08v59h135.8q19.51,0,30.15,10.19a32.76,32.76,0,0,1,10.64,24.52c0,9.54-2.55,17.47-8,25.88-5,7.6-11.66,18.48-30.92,18.48l-30.3-.15c-12.87,0-24.94-2.39-39.88-.39h2.75c-15.09,0-35.27,11.5-45.53,20.75q-3.71,3.35-7.05,6.86s0,0,0,0c-6.17,7-11.8,14.31-16.05,22.72-.39.78-.75,1.55-1.12,2.34a95.09,95.09,0,0,0-8.38,33.21q-.28,3.85-.28,7.79V449H553.93V390H367.65Z" transform="translate(-123.82 -110.6)"/><path class="cls-1" d="M390.28,248.14c-15.09,0-35.27,11.5-45.53,20.75q-3.71,3.35-7.05,6.86c2.24-2.56,4.55-5.1,6.89-7.65,3.91-4.26,14-12.33,28.44-16.77a86.56,86.56,0,0,1,14.5-3.19Z" transform="translate(-123.82 -110.6)"/><path class="cls-1" d="M233.15,258.61V293.3a13.42,13.42,0,0,0,13.42,13.42h65.55v27.34a95.09,95.09,0,0,1,8.38-33.21c.37-.79.73-1.56,1.12-2.34a92.88,92.88,0,0,1,16.05-22.72s0,0,0,0q3.35-3.53,7.05-6.86c10.26-9.25,30.44-20.75,45.53-20.75H243.62A10.47,10.47,0,0,0,233.15,258.61Zm61.18-148q-38.19,0-69.64,12.15T170.9,156.81a152.83,152.83,0,0,0-34.72,52.28q-12.37,30.36-12.36,67.25,0,36.45,12.58,68.12a165.34,165.34,0,0,0,35.14,54.89,162.35,162.35,0,0,0,53.81,36.44q31.23,13.23,69,13.23h17.51V390H294.33q-24.74,0-45.35-8a101.23,101.23,0,0,1-58.34-57.05,113.64,113.64,0,0,1-8.26-43.83,115.81,115.81,0,0,1,8.48-44.47,104.8,104.8,0,0,1,23.42-35.36,109.32,109.32,0,0,1,35.36-23.21,115.29,115.29,0,0,1,44.69-8.46H343.8v-59Z" transform="translate(-123.82 -110.6)"/><path class="cls-1" d="M665.53,110.6a17.89,17.89,0,0,0-17.88,17.89V296.3q0,26.47-3.9,44.47t-12.58,28.86A48.53,48.53,0,0,1,609,385.24Q595.59,390,576.93,390H565.65q-19.1,0-32.33-4.56a45.2,45.2,0,0,1-21.68-15.62q-8.47-11.07-12.37-28.85c-2.31-10.54-4.38-31.9-4.81-49.11h0a124.62,124.62,0,0,1-38.58,5.72H436.37q.27,73.25,33.6,112.16Q503.6,449,565.65,449h11.28q61.61,0,95.67-39.48T706.66,296.3V127.62a17,17,0,0,0-17-17Z" transform="translate(-123.82 -110.6)"/></svg>